# xmcd
#
# Track frame offsets:
# 150
# 18925
# 44935
# 68192
# 101427
# 128685
# 153170
# 167358
#
# Disc length: 2429 seconds
#
#
# Revision: 0
# Processed by: cddbd v1.5.2PL0 Copyright (c) Steve Scherf et al.
# Submitted via: Nero 7, 11, 10, 0 
#
DISCID=5d097b08
DTITLE=Harry Lee and The Back Alley Blues Band - Long Time Comin'
DYEAR=2001
DGENRE=Blues
TTITLE0=On My Way Back Home To You
TTITLE1=Blackest Cat Bone (Tribute To Albert Collins)
TTITLE2=Bluesman In The House
TTITLE3=Showdown
TTITLE4=Elmore James Tribute
TTITLE5=Shame And A Sin
TTITLE6=Surgeon General's News
TTITLE7=Loosen Up (Studio Jam)
EXTD=
EXTT0=On My Way Back Home To You
EXTT1=Blackest Cat Bone (Tribute To Albert Collins)
EXTT2=Bluesman In The House
EXTT3=Showdown
EXTT4=Elmore James Tribute
EXTT5=Shame And A Sin
EXTT6=Surgeon General's News
EXTT7=Loosen Up (Studio Jam)
PLAYORDER=
